<svg
    xmlns="http://www.w3.org/2000/svg"
    viewBox="0 0 48 48"
    width="48px"
    height="48px"
>
    <path
        fill="#4285F4"
        d="M44.5 20H24v8.5h11.7C33.6 33.8 29.2 37 24 37c-7.2 0-13-5.8-13-13s5.8-13 13-13c3.3 0 6.2 1.2 8.4 3.2L38 7.8C34.1 4.2 29.3 2 24 2 12.9 2 4 10.9 4 22s8.9 20 20 20c10.7 0 18.7-7.6 18.7-18.4 0-1.2-.1-2.4-.2-3.6z"
    />
    <path
        fill="#34A853"
        d="M9.2 14.6l6.6 4.8c1.8-4.8 6.2-8.4 11.2-8.4 3.3 0 6.2 1.2 8.4 3.2L38 7.8C34.1 4.2 29.3 2 24 2c-6.9 0-12.7 3.9-15.8 9.6z"
    />
    <path
        fill="#FBBC05"
        d="M24 44c5.3 0 9.9-1.8 13.2-4.8l-6.2-5.1C29.9 36.2 27.1 37 24 37c-5.2 0-9.6-3.2-11.4-7.8l-6.5 5c3.2 6.3 9.7 10.8 17.9 10.8z"
    />
    <path
        fill="#EA4335"
        d="M44.5 20H24v8.5h11.7c-1.2 4.2-4.9 7.5-11.7 7.5-5.2 0-9.6-3.2-11.4-7.8l-6.5 5C9.4 36.9 16.2 42 24 42c10.7 0 18.7-7.6 18.7-18.4 0-1.2-.1-2.4-.2-3.6z"
    />
</svg>
