<svg class="h-4 w-4 text-yellow-400" style="color: #FFD700" viewBox="0 0 20 20" xmlns="http://www.w3.org/2000/svg">
                                    <defs>
                                        <linearGradient id="half">
                                            <stop offset="50%" stop-color="currentColor" />
                                            <stop offset="50%" stop-color="#d1d5db" />
                                        </linearGradient>
                                    </defs>
                                    <path
                                        fill="url(#half)"
                                        d="M9.049 2.927c.3-.921 1.603-.921 1.902 0l1.286 3.974a1 1 0 00.95.69h4.18c.969 0 1.372 1.24.588 1.81l-3.396 2.47a1 1 0 00-.364 1.118l1.287 3.975c.3.92-.755 1.688-1.538 1.118l-3.396-2.47a1 1 0 00-1.176 0l-3.396 2.47c-.783.57-1.837-.198-1.538-1.118l1.287-3.975a1 1 0 00-.364-1.118l-3.396-2.47c-.784-.57-.38-1.81.588-1.81h4.18a1 1 0 00.95-.69l1.286-3.974z"
                                    ></path>
                                </svg>